<?xml version="1.0" standalone="no"?><!DOCTYPE svg PUBLIC "-//W3C//DTD SVG 1.1//EN" "http://www.w3.org/Graphics/SVG/1.1/DTD/svg11.dtd"><svg t="1642126543191" class="icon" viewBox="0 0 1024 1024" version="1.1" xmlns="http://www.w3.org/2000/svg" p-id="5741" xmlns:xlink="http://www.w3.org/1999/xlink" width="200" height="200"><defs><style type="text/css"></style></defs><path d="M679.494815 333.202177A255.815998 255.815998 0 1 1 423.573673 77.386179a255.815998 255.815998 0 0 1 255.921142 255.815998z" fill="#FFD800" p-id="5742"></path><path d="M729.228052 674.710751h-62.245405a8.726974 8.726974 0 0 1 0-17.453948h62.245405a28.494096 28.494096 0 0 0 28.494096-28.388952V311.227025a28.59924 28.59924 0 0 0-28.494096-28.494096H294.351371A28.59924 28.59924 0 0 0 265.857275 311.227025v317.640826a28.494096 28.494096 0 0 0 28.494096 28.388952h229.424787a8.726974 8.726974 0 0 1 0 17.453948H294.351371a45.8429 45.8429 0 0 1-45.8429-45.8429V311.227025a45.8429 45.8429 0 0 1 45.8429-45.842899h434.876681a45.8429 45.8429 0 0 1 45.8429 45.842899v317.640826a45.8429 45.8429 0 0 1-45.8429 45.8429z" fill="" p-id="5743"></path><path d="M666.982647 785.848239a8.516685 8.516685 0 0 1-5.362357-1.892597L518.203512 672.923298a8.726974 8.726974 0 0 1-1.577164-12.196735 8.62183 8.62183 0 0 1 12.09159-1.577164l129.222302 100.202485v-93.368107a8.726974 8.726974 0 0 1 17.453948 0v111.137488a8.62183 8.62183 0 0 1-4.836636 7.780676 8.832118 8.832118 0 0 1-3.574905 0.946298zM641.117158 384.092001H345.346339a8.726974 8.726974 0 0 1 0-17.453948h295.770819a8.726974 8.726974 0 1 1 0 17.453948zM542.596981 473.149194H345.346339a8.726974 8.726974 0 0 1 0-17.348804h197.250642a8.726974 8.726974 0 1 1 0 17.348804zM476.145806 782.9042H371.00154a8.726974 8.726974 0 1 1 0-17.453948h105.144266a8.726974 8.726974 0 1 1 0 17.453948zM330.731287 782.9042h-4.41606a8.726974 8.726974 0 1 1 0-17.453948h4.41606a8.726974 8.726974 0 1 1 0 17.453948z m-60.983674 0H265.857275a8.726974 8.726974 0 0 1 0-17.453948h4.310915a8.726974 8.726974 0 1 1 0 17.453948z" fill="" p-id="5744"></path></svg>